<svg version="1.1" id="Layer_1" xmlns="http://www.w3.org/2000/svg" xmlns:xlink="http://www.w3.org/1999/xlink" x="0px" y="0px"
	 width="100%" viewBox="0 0 428 146" enable-background="new 0 0 428 146" xml:space="preserve">
<path fill="#FEFEFE" opacity="1.000000" stroke="none" 
	d="
M275.000000,147.000000 
	C183.333344,147.000000 92.166687,147.000000 1.000025,147.000000 
	C1.000016,98.333351 1.000016,49.666698 1.000008,1.000038 
	C143.666641,1.000025 286.333282,1.000025 428.999939,1.000013 
	C428.999939,49.666626 428.999939,98.333252 428.999969,146.999939 
	C377.833344,147.000000 326.666656,147.000000 275.000000,147.000000 
M90.462891,62.978649 
	C93.399010,62.936596 96.335129,62.894539 99.926880,63.037472 
	C102.452751,64.244606 104.935089,66.209305 107.521774,66.357933 
	C108.939285,66.439377 111.690598,63.503613 111.760361,61.841091 
	C111.851936,59.658550 110.463959,56.584026 108.694191,55.330376 
	C105.274345,52.907879 102.523315,55.487743 99.258675,58.038578 
	C93.516434,58.017120 87.774200,57.995663 81.927757,57.237907 
	C81.963104,56.496971 81.998451,55.756035 82.931992,54.993797 
	C86.988029,54.102501 92.492462,57.078148 94.745560,51.391521 
	C97.319756,44.894512 101.884056,43.045216 108.301331,44.066017 
	C109.592110,44.271339 110.938637,44.126160 112.712662,44.604694 
	C114.949837,48.632454 118.608765,49.510689 121.872765,46.956673 
	C123.484528,45.695499 124.360130,41.729630 123.657440,39.626068 
	C121.973984,34.586563 116.506165,34.944729 111.326721,39.991337 
	C108.016655,40.010380 104.697243,40.191616 101.399208,40.001682 
	C98.260262,39.820919 95.769707,40.552734 94.609802,43.686169 
	C92.364235,49.752468 87.870598,51.170818 81.928406,49.183674 
	C81.967926,48.378605 82.007446,47.573532 82.483467,46.657860 
	C82.775955,46.512211 82.950851,46.278469 82.997643,46.010136 
	C82.997643,46.010136 82.948349,45.986851 83.788147,46.085957 
	C88.028160,46.935631 90.205505,44.797226 91.409515,41.001583 
	C92.005081,39.124062 93.071342,37.395706 93.665215,35.517822 
	C94.555679,32.702045 96.383255,31.583342 99.886398,32.076298 
	C100.652023,32.911194 101.324379,33.863586 102.200630,34.559109 
	C104.905502,36.706116 107.718513,36.654762 110.206001,34.296185 
	C112.693398,31.937691 112.963638,29.044144 110.891792,26.320625 
	C108.667725,23.397017 105.716805,23.027222 102.624634,24.977060 
	C101.680862,25.572178 100.993393,26.573748 99.383522,27.279852 
	C93.560387,26.983973 90.487549,29.934816 89.131187,35.444794 
	C88.188454,39.274513 86.168045,42.473057 81.218300,42.727818 
	C80.110344,41.830811 79.002380,40.933800 77.956276,39.267010 
	C78.585915,35.792412 83.746147,34.156822 82.316101,29.176989 
	C85.480743,26.758287 87.221313,23.503321 84.255829,20.350958 
	C82.740288,18.739904 79.078056,17.801338 76.914963,18.417002 
	C71.868492,19.853340 72.114067,25.017899 77.039452,30.543736 
	C75.675339,33.686462 74.311218,36.829189 72.171104,40.073368 
	C70.435951,39.837841 68.700806,39.602314 67.060394,38.460339 
	C67.499519,34.709461 66.860802,31.716705 62.399498,30.848913 
	C61.471024,30.668312 60.746910,29.437067 60.342674,28.162645 
	C61.150860,27.595625 62.039230,27.114349 62.753231,26.446615 
	C65.712601,23.679018 65.896011,19.792849 63.022766,17.354527 
	C60.247635,14.999472 57.188206,15.131180 54.531181,17.514591 
	C51.939091,19.839754 52.441147,24.256445 55.335480,26.642538 
	C56.213062,27.366022 57.157299,28.008654 57.497002,29.224625 
	C56.246525,32.013504 57.626331,33.257572 59.993149,34.641891 
	C61.452065,35.495190 62.135288,37.674728 62.616180,39.816082 
	C60.787849,39.866875 58.959522,39.917667 57.083973,39.215031 
	C55.666328,37.862656 54.434982,36.189320 52.787437,35.233017 
	C50.306938,33.793228 47.535362,32.854916 45.375546,31.241812 
	C49.316391,27.708805 49.932178,24.450510 46.944168,21.596502 
	C44.302780,19.073576 41.219696,19.000231 38.411045,21.273165 
	C35.207909,23.865334 35.604282,27.371719 39.201836,31.030128 
	C39.766914,31.604767 40.183434,32.325493 40.838200,33.740376 
	C42.114998,34.762211 43.276470,35.999931 44.694477,36.757439 
	C47.074047,38.028622 49.616947,38.994068 51.635204,40.531048 
	C50.427845,41.398384 49.220486,42.265717 47.258419,42.758953 
	C43.812931,42.528141 40.349239,42.442078 36.928825,42.011890 
	C34.897041,41.756351 32.623596,41.412159 31.006254,40.306808 
	C28.011343,38.259979 25.492775,35.531616 22.638565,33.259514 
	C19.159880,30.490295 18.995232,27.388567 21.921839,24.027954 
	C22.715494,24.852377 23.444820,26.294264 24.314922,26.384912 
	C26.877459,26.651882 30.351538,27.362133 31.852556,26.049976 
	C33.365433,24.727455 33.764107,20.976200 33.170479,18.670187 
	C32.292576,15.259898 28.688602,15.186998 26.073315,16.221693 
	C24.139957,16.986593 22.807583,19.270529 20.456955,20.596224 
	C17.187496,19.104136 16.194208,20.269766 15.821167,23.725286 
	C15.108400,30.327705 16.984676,35.376984 22.756428,38.925270 
	C24.434502,39.956894 25.638350,41.810547 27.361626,42.706295 
	C30.029713,44.093140 32.874603,45.471107 35.794495,45.963451 
	C40.016773,46.675404 44.373070,46.592556 48.805073,47.624996 
	C48.761177,48.407963 48.717281,49.190926 47.789928,49.983162 
	C43.135124,50.025318 38.469597,50.264004 33.830902,50.010929 
	C32.026794,49.912502 29.699341,49.193165 28.624424,47.908257 
	C25.708530,44.422733 22.202728,43.478634 17.409777,43.642212 
	C15.443399,40.703609 12.960085,39.251331 9.377053,40.750568 
	C6.192811,42.082947 5.242209,44.739567 6.086345,47.663868 
	C6.559213,49.302006 8.111388,51.192135 9.652633,51.842941 
	C13.033030,53.270355 15.700306,51.442429 18.295153,48.695545 
	C18.533895,48.455128 18.772638,48.214714 19.005718,48.006535 
	C19.005718,48.006535 18.973192,48.003292 19.731358,48.106407 
	C21.106562,48.527985 23.123613,48.514339 23.752584,49.441921 
	C27.771669,55.369102 33.639973,55.225872 39.715153,54.924931 
	C42.692287,54.777454 45.686825,54.981354 48.807953,55.763947 
	C48.764317,56.509338 48.720676,57.254730 47.797974,58.002094 
	C38.973236,57.200218 30.903336,58.045841 26.242239,67.187233 
	C25.634596,68.378944 24.019873,69.057167 22.255035,69.696236 
	C21.809294,69.008873 21.409479,68.285988 20.910053,67.640137 
	C18.432428,64.436111 14.721520,63.918674 11.928958,66.360252 
	C9.279823,68.676422 9.078527,72.617119 11.481064,75.128304 
	C14.080444,77.845238 17.675327,77.700012 20.578070,74.786964 
	C21.244175,74.118492 21.983202,73.522675 23.493002,72.972771 
	C27.849871,73.632820 29.681770,70.173004 31.496126,67.472282 
	C33.899204,63.895233 36.715977,62.210968 40.832836,63.806843 
	C40.748138,64.879715 40.663441,65.952583 40.251926,67.398666 
	C40.155369,67.880432 40.058807,68.362190 39.381069,68.983871 
	C38.897987,69.291252 38.414902,69.598625 37.232597,70.029976 
	C32.002953,73.936028 31.314445,77.215469 33.347816,85.871178 
	C32.613422,86.203438 31.879026,86.535698 30.788830,86.280861 
	C30.017550,85.214050 29.461046,83.598602 28.430134,83.195023 
	C26.305077,82.363144 23.372440,81.148346 21.797525,81.996117 
	C19.962305,82.983994 18.196682,86.068855 18.317987,88.130997 
	C18.424198,89.936501 21.100159,92.877014 22.793764,92.988197 
	C25.081104,93.138344 27.514702,91.060493 30.819319,89.996925 
	C34.170559,90.070396 37.521797,90.143860 40.905514,90.990433 
	C41.579033,98.189064 45.941402,103.244080 50.734047,108.839684 
	C50.794582,110.219543 50.855122,111.599396 50.414448,113.394669 
	C49.515633,114.918991 48.616814,116.443314 47.020107,117.982887 
	C45.525372,118.563492 44.076447,119.386040 42.527313,119.679359 
	C37.877483,120.559784 33.183704,121.205101 28.516068,121.995270 
	C22.498608,123.013931 18.927786,127.144104 18.525625,134.067169 
	C22.637999,134.067169 26.734522,134.067169 31.801373,134.085831 
	C54.516121,134.048019 77.230865,134.010223 100.874481,133.990005 
	C104.437599,133.990005 108.000710,133.990005 111.630867,133.990005 
	C110.871246,127.001595 108.097847,123.286827 102.861641,122.147072 
	C95.968582,120.646660 89.024796,119.379257 81.881477,117.325020 
	C81.046333,115.864059 80.211189,114.403099 79.583755,112.162140 
	C79.626747,110.829315 79.669746,109.496498 80.059639,107.541634 
	C84.836967,102.355591 89.563789,97.144112 89.838776,89.209702 
	C90.609184,88.860420 91.379601,88.511131 92.834633,88.019272 
	C95.233566,85.064751 97.632500,82.110222 100.604843,79.492302 
	C103.087463,82.886894 103.470306,88.962845 110.492653,87.595299 
	C112.274727,90.810448 115.187660,92.198898 118.413818,90.801613 
	C120.218246,90.020103 122.409050,87.571381 122.416779,85.864807 
	C122.425919,83.845161 120.737991,81.086418 118.955109,79.942276 
	C115.238533,77.557205 112.467445,80.043678 109.455109,82.989006 
	C107.995750,81.454544 106.167549,80.128281 105.158066,78.339874 
	C103.363014,75.159744 101.342735,73.912392 97.481606,75.696014 
	C95.684166,73.760841 93.886726,71.825676 91.707008,69.422150 
	C91.134216,69.241730 90.561424,69.061310 89.988525,68.175476 
	C89.943794,67.707680 89.899063,67.239883 89.846001,66.019287 
	C89.726074,65.018150 89.606148,64.017014 90.462891,62.978649 
M187.920593,50.855312 
	C185.006805,46.092117 180.560699,43.326355 175.199783,43.115791 
	C165.252014,42.725071 155.277939,43.003845 145.136780,43.003845 
	C145.136780,63.218910 145.136780,83.440819 145.136780,103.861359 
	C155.160049,103.861359 164.955078,104.042336 174.735931,103.749619 
	C177.620239,103.663284 180.652298,102.625916 183.290024,101.349457 
	C189.842316,98.178627 192.576752,92.639290 192.087936,85.431976 
	C191.662674,79.161682 188.113495,74.865181 181.401413,72.526863 
	C180.736038,72.295059 180.105057,71.964592 179.212097,71.571671 
	C189.296158,67.304214 191.872437,61.386482 187.920593,50.855312 
M355.518005,99.105858 
	C356.494385,96.146523 357.470795,93.187195 358.472137,90.152252 
	C365.959595,90.152252 373.244324,90.152252 380.641449,90.152252 
	C382.194183,94.774971 383.713043,99.296745 385.225250,103.798790 
	C389.828705,103.798790 394.248627,103.798790 399.047882,103.798790 
	C395.431366,93.334145 391.914795,83.171501 388.407196,73.005783 
	C384.901611,62.845879 381.404907,52.682907 377.973175,42.721252 
	C372.132690,42.721252 366.826538,42.721252 361.198944,42.721252 
	C354.585907,61.816181 347.968689,80.910820 341.368195,100.011246 
	C340.949677,101.222450 340.661163,102.478592 340.262421,103.889893 
	C344.844757,103.889893 349.155334,103.889893 353.767822,103.889893 
	C354.229950,102.593971 354.716705,101.229034 355.518005,99.105858 
M270.557953,86.141182 
	C271.913574,85.483665 273.258820,84.282921 274.626526,84.256721 
	C283.563416,84.085503 292.505188,84.168640 301.378876,84.168640 
	C303.007812,69.065971 295.923096,59.163857 282.727356,57.490074 
	C270.206085,55.901844 259.597351,64.146095 258.043213,76.672653 
	C256.118500,92.185921 263.520905,103.012093 277.260437,104.778221 
	C289.240784,106.318207 299.440155,100.423149 300.850494,90.884995 
	C298.714050,90.675270 296.570435,90.202522 294.465057,90.335403 
	C292.540985,90.456833 290.068939,90.632416 288.855499,91.821808 
	C282.281250,98.265770 273.375519,96.022469 270.557953,86.141182 
M326.097870,55.681477 
	C325.832794,48.691708 331.077484,50.169525 335.389099,50.001667 
	C336.051056,47.029797 336.683838,44.189060 337.303345,41.407864 
	C323.305145,36.075386 314.907623,41.778309 312.885651,57.798851 
	C311.008331,57.895187 309.089874,57.993633 307.161926,58.092567 
	C307.161926,61.361431 307.161926,64.269081 307.161926,67.259361 
	C309.296661,67.503342 311.188599,67.719574 313.381866,67.970238 
	C313.381866,80.053932 313.381866,91.800453 313.381866,103.732651 
	C317.776276,103.732651 321.817017,103.732651 326.279999,103.732651 
	C326.279999,91.575981 326.279999,79.692108 326.279999,67.359650 
	C329.451447,67.359650 332.201233,67.359650 334.931213,67.359650 
	C334.931213,63.985931 334.931213,61.084137 334.931213,57.945675 
	C333.172180,57.945675 331.666870,58.126751 330.228455,57.894203 
	C328.820282,57.666550 327.480225,57.017494 326.097870,55.681477 
M406.640533,68.499603 
	C406.640533,80.262932 406.640533,92.026268 406.640533,103.670761 
	C411.247620,103.670761 415.315613,103.670761 419.409363,103.670761 
	C419.409363,83.256760 419.409363,63.187202 419.409363,42.865761 
	C415.122498,42.865761 411.067963,42.865761 406.640594,42.865761 
	C406.640594,51.255676 406.640594,59.377632 406.640533,68.499603 
M200.662369,89.497879 
	C200.662369,94.245384 200.662369,98.992889 200.662369,103.764404 
	C205.163223,103.764404 209.084061,103.764404 212.946823,103.764404 
	C213.097061,103.228928 213.253891,102.928757 213.254990,102.628014 
	C213.280594,95.644730 213.290466,88.661400 213.300903,81.678070 
	C213.317154,70.811142 216.250412,68.036423 227.212433,68.813507 
	C228.338318,65.677200 229.490112,62.468693 231.084427,58.027493 
	C227.030548,58.027493 223.426132,57.186234 220.536972,58.263382 
	C217.630035,59.347149 215.434509,62.339043 212.871735,64.542557 
	C212.871735,62.670738 212.871735,60.443348 212.871735,58.264725 
	C208.590347,58.264725 204.684204,58.264725 200.662354,58.264725 
	C200.662354,68.549149 200.662354,78.523567 200.662369,89.497879 
M236.892136,93.482895 
	C236.892136,96.917328 236.892136,100.351768 236.892136,103.794327 
	C241.390198,103.794327 245.317978,103.794327 249.465286,103.794327 
	C249.465286,88.508896 249.465286,73.441826 249.465286,58.252762 
	C245.175644,58.252762 241.128036,58.252762 236.892136,58.252762 
	C236.892136,69.869095 236.892136,81.177574 236.892136,93.482895 
M246.456406,51.178177 
	C250.974472,47.501995 251.356216,42.961906 247.271790,40.307766 
	C244.309723,38.382961 240.919647,38.248104 238.742691,40.985184 
	C237.369263,42.711983 236.520081,45.979717 237.189316,47.965191 
	C238.448563,51.701214 241.895782,52.705971 246.456406,51.178177 
z"/>
<path fill="#040404" opacity="1.000000" stroke="none" 
	d="
M188.073196,51.208138 
	C191.872437,61.386482 189.296158,67.304214 179.212097,71.571671 
	C180.105057,71.964592 180.736038,72.295059 181.401413,72.526863 
	C188.113495,74.865181 191.662674,79.161682 192.087936,85.431976 
	C192.576752,92.639290 189.842316,98.178627 183.290024,101.349457 
	C180.652298,102.625916 177.620239,103.663284 174.735931,103.749619 
	C164.955078,104.042336 155.160049,103.861359 145.136780,103.861359 
	C145.136780,83.440819 145.136780,63.218910 145.136780,43.003845 
	C155.277939,43.003845 165.252014,42.725071 175.199783,43.115791 
	C180.560699,43.326355 185.006805,46.092117 188.073196,51.208138 
M157.881088,83.553772 
	C157.881088,86.778221 157.881088,90.002663 157.881088,93.185181 
	C162.607040,93.185181 166.584137,93.291321 170.553101,93.156982 
	C175.017532,93.005882 178.253220,91.068413 178.808563,86.260468 
	C179.306198,81.952118 176.118973,77.890282 171.255661,77.350143 
	C166.907486,76.867233 162.463303,77.248573 157.881104,77.248573 
	C157.881104,79.294579 157.881104,80.937698 157.881088,83.553772 
M176.558105,62.009655 
	C177.526596,53.778057 170.839279,51.707867 158.119507,53.603909 
	C158.119507,58.358505 158.119507,63.113102 158.119507,68.131241 
	C161.809341,68.131241 165.463959,68.828018 168.664764,67.921844 
	C171.479797,67.124886 173.786987,64.534019 176.558105,62.009655 
z"/>
<path fill="#040404" opacity="1.000000" stroke="none" 
	d="
M355.360718,99.484985 
	C354.716705,101.229034 354.229950,102.593971 353.767822,103.889893 
	C349.155334,103.889893 344.844757,103.889893 340.262421,103.889893 
	C340.661163,102.478592 340.949677,101.222450 341.368195,100.011246 
	C347.968689,80.910820 354.585907,61.816181 361.198944,42.721252 
	C366.826538,42.721252 372.132690,42.721252 377.973175,42.721252 
	C381.404907,52.682907 384.901611,62.845879 388.407196,73.005783 
	C391.914795,83.171501 395.431366,93.334145 399.047882,103.798790 
	C394.248627,103.798790 389.828705,103.798790 385.225250,103.798790 
	C383.713043,99.296745 382.194183,94.774971 380.641449,90.152252 
	C373.244324,90.152252 365.959595,90.152252 358.472137,90.152252 
	C357.470795,93.187195 356.494385,96.146523 355.360718,99.484985 
M371.300659,61.225040 
	C370.815063,59.846992 370.329468,58.468945 369.507690,56.136829 
	C366.771790,64.517815 364.340240,71.966545 361.815552,79.700668 
	C367.111145,79.700668 371.971527,79.700668 377.297760,79.700668 
	C375.335602,73.552567 373.482452,67.746132 371.300659,61.225040 
z"/>
<path fill="#070707" opacity="1.000000" stroke="none" 
	d="
M270.642059,86.576874 
	C273.375519,96.022469 282.281250,98.265770 288.855499,91.821808 
	C290.068939,90.632416 292.540985,90.456833 294.465057,90.335403 
	C296.570435,90.202522 298.714050,90.675270 300.850494,90.884995 
	C299.440155,100.423149 289.240784,106.318207 277.260437,104.778221 
	C263.520905,103.012093 256.118500,92.185921 258.043213,76.672653 
	C259.597351,64.146095 270.206085,55.901844 282.727356,57.490074 
	C295.923096,59.163857 303.007812,69.065971 301.378876,84.168640 
	C292.505188,84.168640 283.563416,84.085503 274.626526,84.256721 
	C273.258820,84.282921 271.913574,85.483665 270.642059,86.576874 
M287.822449,76.238731 
	C288.300873,75.343781 289.320892,74.341675 289.168549,73.571510 
	C288.277252,69.066162 284.002075,66.422722 278.938904,66.987068 
	C274.132202,67.522827 271.251617,70.776642 271.026978,76.245865 
	C276.339325,76.245865 281.644653,76.245865 287.822449,76.238731 
z"/>
<path fill="#E7EFF0" opacity="1.000000" stroke="none" 
	d="
M39.962250,68.843956 
	C40.058807,68.362190 40.155369,67.880432 40.789066,67.272308 
	C43.491280,67.496475 45.656349,67.847015 47.899570,68.571022 
	C59.656681,73.235626 71.321716,72.969933 83.337555,68.829300 
	C85.751556,68.138077 87.802948,67.455086 89.854340,66.772087 
	C89.899063,67.239883 89.943794,67.707680 89.969681,69.006432 
	C89.633644,75.204033 89.316444,80.570679 88.628906,85.981445 
	C85.292061,87.887238 81.869057,89.302261 79.487518,91.736282 
	C77.108582,94.167648 76.193115,97.996628 73.900192,100.552811 
	C66.839714,108.423927 53.864971,103.209244 51.442322,94.657173 
	C49.650665,88.332527 45.786465,87.253845 41.011234,85.444794 
	C40.652103,79.606621 40.307178,74.225288 39.962250,68.843956 
M59.714455,94.019714 
	C60.197025,95.268532 60.502312,97.465225 61.194256,97.594635 
	C63.605904,98.045700 66.171997,97.964989 68.634674,97.688423 
	C69.487167,97.592674 70.209198,96.335281 70.990822,95.608498 
	C70.100090,94.801384 69.261475,93.385551 68.308617,93.303970 
	C65.693413,93.080048 63.030224,93.416527 59.714455,94.019714 
M74.051819,78.380066 
	C72.511475,78.406441 70.971138,78.432816 69.430794,78.459190 
	C70.321777,79.677635 70.970718,81.329460 72.168564,81.998474 
	C73.493103,82.738235 75.644646,83.242302 76.851761,82.652748 
	C78.621658,81.788338 79.872314,79.860786 81.344223,78.386246 
	C79.620323,78.418076 77.896141,78.439537 76.172722,78.488342 
	C75.685089,78.502144 75.199722,78.595863 74.051819,78.380066 
M51.184505,77.214615 
	C47.707516,78.136070 48.270947,80.611191 50.534237,81.365799 
	C53.142155,82.235329 56.330811,81.593002 59.213001,81.204597 
	C59.751392,81.132050 60.033829,79.160172 60.434387,78.064819 
	C59.413609,77.972343 58.394279,77.857002 57.371738,77.792419 
	C55.540432,77.676750 53.707199,77.591644 51.184505,77.214615 
z"/>
<path fill="#070707" opacity="1.000000" stroke="none" 
	d="
M326.104065,56.117439 
	C327.480225,57.017494 328.820282,57.666550 330.228455,57.894203 
	C331.666870,58.126751 333.172180,57.945675 334.931213,57.945675 
	C334.931213,61.084137 334.931213,63.985931 334.931213,67.359650 
	C332.201233,67.359650 329.451447,67.359650 326.279999,67.359650 
	C326.279999,79.692108 326.279999,91.575981 326.279999,103.732651 
	C321.817017,103.732651 317.776276,103.732651 313.381866,103.732651 
	C313.381866,91.800453 313.381866,80.053932 313.381866,67.970238 
	C311.188599,67.719574 309.296661,67.503342 307.161926,67.259361 
	C307.161926,64.269081 307.161926,61.361431 307.161926,58.092567 
	C309.089874,57.993633 311.008331,57.895187 312.885651,57.798851 
	C314.907623,41.778309 323.305145,36.075386 337.303345,41.407864 
	C336.683838,44.189060 336.051056,47.029797 335.389099,50.001667 
	C331.077484,50.169525 325.832794,48.691708 326.104065,56.117439 
z"/>
<path fill="#090909" opacity="1.000000" stroke="none" 
	d="
M406.640564,67.999596 
	C406.640594,59.377632 406.640594,51.255676 406.640594,42.865761 
	C411.067963,42.865761 415.122498,42.865761 419.409363,42.865761 
	C419.409363,63.187202 419.409363,83.256760 419.409363,103.670761 
	C415.315613,103.670761 411.247620,103.670761 406.640533,103.670761 
	C406.640533,92.026268 406.640533,80.262932 406.640564,67.999596 
z"/>
<path fill="#E8F0F1" opacity="1.000000" stroke="none" 
	d="
M30.831045,134.067169 
	C26.734522,134.067169 22.637999,134.067169 18.525625,134.067169 
	C18.927786,127.144104 22.498608,123.013931 28.516068,121.995270 
	C33.183704,121.205101 37.877483,120.559784 42.527313,119.679359 
	C44.076447,119.386040 45.525372,118.563492 47.597282,118.255562 
	C50.222595,120.683250 52.270729,122.838264 55.278416,126.002907 
	C59.151081,126.002907 64.571259,125.875244 69.982048,126.045692 
	C73.893051,126.168900 77.489723,126.464912 78.578606,121.272667 
	C78.846458,119.995483 80.880661,119.088722 82.102821,118.011673 
	C89.024796,119.379257 95.968582,120.646660 102.861641,122.147072 
	C108.097847,123.286827 110.871246,127.001595 111.630867,133.990005 
	C108.000710,133.990005 104.437599,133.990005 100.282379,133.645523 
	C97.817009,132.222763 95.954613,130.229797 94.068787,130.207382 
	C74.695892,129.977158 55.319180,130.055161 35.943573,130.078949 
	C33.270699,130.082230 30.911177,130.658295 30.831045,134.067169 
z"/>
<path fill="#030303" opacity="1.000000" stroke="none" 
	d="
M200.662354,88.997932 
	C200.662354,78.523567 200.662354,68.549149 200.662354,58.264725 
	C204.684204,58.264725 208.590347,58.264725 212.871735,58.264725 
	C212.871735,60.443348 212.871735,62.670738 212.871735,64.542557 
	C215.434509,62.339043 217.630035,59.347149 220.536972,58.263382 
	C223.426132,57.186234 227.030548,58.027493 231.084427,58.027493 
	C229.490112,62.468693 228.338318,65.677200 227.212433,68.813507 
	C216.250412,68.036423 213.317154,70.811142 213.300903,81.678070 
	C213.290466,88.661400 213.280594,95.644730 213.254990,102.628014 
	C213.253891,102.928757 213.097061,103.228928 212.946823,103.764404 
	C209.084061,103.764404 205.163223,103.764404 200.662369,103.764404 
	C200.662369,98.992889 200.662369,94.245384 200.662354,88.997932 
z"/>
<path fill="#FBC85D" opacity="1.000000" stroke="none" 
	d="
M82.046967,46.768463 
	C82.007446,47.573532 81.967926,48.378605 81.931061,49.907356 
	C81.967072,52.092392 82.000435,53.553745 82.033798,55.015099 
	C81.998451,55.756035 81.963104,56.496971 81.935455,57.967896 
	C82.292679,60.087330 82.642204,61.476772 82.968704,63.288330 
	C82.866905,64.824104 82.788124,65.937775 82.325562,67.058762 
	C70.681648,69.832520 59.422787,69.946609 48.107044,66.674805 
	C47.697865,65.151955 47.346996,64.004341 47.134750,62.554398 
	C47.741261,60.834751 48.209148,59.417435 48.677040,58.000122 
	C48.720676,57.254730 48.764317,56.509338 48.815052,55.074127 
	C48.772564,52.914165 48.722977,51.444031 48.673386,49.973892 
	C48.717281,49.190926 48.761177,48.407963 48.795910,46.925514 
	C48.528873,45.195042 48.271000,44.164043 48.013123,43.133049 
	C49.220486,42.265717 50.427845,41.398384 52.280251,40.342842 
	C54.327263,40.092583 55.729229,40.030521 57.131191,39.968460 
	C58.959522,39.917667 60.787849,39.866875 63.269890,39.504036 
	C64.937614,39.250259 65.951637,39.308525 66.965652,39.366787 
	C68.700806,39.602314 70.435951,39.837841 72.884590,39.985435 
	C75.030190,39.943932 76.462311,39.990364 77.894424,40.036797 
	C79.002380,40.933800 80.110344,41.830811 81.621338,43.194870 
	C82.332367,44.436897 82.640358,45.211872 82.948349,45.986851 
	C82.948349,45.986851 82.997643,46.010136 82.772346,46.019119 
	C82.248177,46.185703 82.081482,46.432491 82.046967,46.768463 
M58.441093,48.998837 
	C53.955067,52.683102 53.291470,61.594078 57.279831,64.592560 
	C60.947052,59.986099 60.947052,59.986099 64.759933,64.636551 
	C67.393768,62.519730 67.420799,62.413124 67.076683,55.500481 
	C66.803001,50.002724 64.857430,48.353111 58.441093,48.998837 
M71.074364,53.690643 
	C71.078926,56.340733 70.897865,59.010792 71.179726,61.631054 
	C71.291939,62.674191 72.428360,63.607151 73.098518,64.590271 
	C73.762642,63.626442 74.910072,62.705265 74.999611,61.690720 
	C75.260742,58.732044 75.297386,55.716961 75.012848,52.763412 
	C74.886009,51.446873 73.779274,50.224735 73.117279,48.959751 
	C72.436668,50.231262 71.756065,51.502773 71.074364,53.690643 
z"/>
<path fill="#080808" opacity="1.000000" stroke="none" 
	d="
M236.892136,92.984474 
	C236.892136,81.177574 236.892136,69.869095 236.892136,58.252762 
	C241.128036,58.252762 245.175644,58.252762 249.465286,58.252762 
	C249.465286,73.441826 249.465286,88.508896 249.465286,103.794327 
	C245.317978,103.794327 241.390198,103.794327 236.892136,103.794327 
	C236.892136,100.351768 236.892136,96.917328 236.892136,92.984474 
z"/>
<path fill="#A4BFCE" opacity="1.000000" stroke="none" 
	d="
M41.025444,85.901634 
	C45.786465,87.253845 49.650665,88.332527 51.442322,94.657173 
	C53.864971,103.209244 66.839714,108.423927 73.900192,100.552811 
	C76.193115,97.996628 77.108582,94.167648 79.487518,91.736282 
	C81.869057,89.302261 85.292061,87.887238 88.633377,86.410049 
	C89.074463,87.654076 89.140732,88.513626 89.206985,89.373169 
	C89.563789,97.144112 84.836967,102.355591 79.536789,107.856354 
	C69.580833,113.007309 60.175213,112.956955 50.797115,108.012405 
	C45.941402,103.244080 41.579033,98.189064 40.931202,90.171059 
	C40.979740,88.201668 41.002594,87.051651 41.025444,85.901634 
z"/>
<path fill="#77A0B7" opacity="1.000000" stroke="none" 
	d="
M81.992149,117.668350 
	C80.880661,119.088722 78.846458,119.995483 78.578606,121.272667 
	C77.489723,126.464912 73.893051,126.168900 69.982048,126.045692 
	C64.571259,125.875244 59.151081,126.002907 55.278416,126.002907 
	C52.270729,122.838264 50.222595,120.683250 47.946228,118.247940 
	C48.616814,116.443314 49.515633,114.918991 51.065464,113.194534 
	C58.460583,115.038277 65.143112,117.549171 72.354126,114.987785 
	C74.647598,114.173134 77.032806,113.616730 79.376038,112.942146 
	C80.211189,114.403099 81.046333,115.864059 81.992149,117.668350 
z"/>
<path fill="#BEC4C5" opacity="1.000000" stroke="none" 
	d="
M31.316208,134.076508 
	C30.911177,130.658295 33.270699,130.082230 35.943573,130.078949 
	C55.319180,130.055161 74.695892,129.977158 94.068787,130.207382 
	C95.954613,130.229797 97.817009,132.222763 99.817947,133.636734 
	C77.230865,134.010223 54.516121,134.048019 31.316208,134.076508 
z"/>
<path fill="#A6C0CF" opacity="1.000000" stroke="none" 
	d="
M47.635773,42.945999 
	C48.271000,44.164043 48.528873,45.195042 48.729469,46.537415 
	C44.373070,46.592556 40.016773,46.675404 35.794495,45.963451 
	C32.874603,45.471107 30.029713,44.093140 27.361626,42.706295 
	C25.638350,41.810547 24.434502,39.956894 22.756428,38.925270 
	C16.984676,35.376984 15.108400,30.327705 15.821167,23.725286 
	C16.194208,20.269766 17.187496,19.104136 20.751814,21.108757 
	C21.122072,22.366962 21.197472,23.112635 21.272869,23.858309 
	C18.995232,27.388567 19.159880,30.490295 22.638565,33.259514 
	C25.492775,35.531616 28.011343,38.259979 31.006254,40.306808 
	C32.623596,41.412159 34.897041,41.756351 36.928825,42.011890 
	C40.349239,42.442078 43.812931,42.528141 47.635773,42.945999 
z"/>
<path fill="#ABC3D2" opacity="1.000000" stroke="none" 
	d="
M82.482895,55.004448 
	C82.000435,53.553745 81.967072,52.092392 81.983765,50.307884 
	C87.870598,51.170818 92.364235,49.752468 94.609802,43.686169 
	C95.769707,40.552734 98.260262,39.820919 101.399208,40.001682 
	C104.697243,40.191616 108.016655,40.010380 111.678726,40.306374 
	C112.106979,41.795135 112.183220,42.968861 112.259460,44.142582 
	C110.938637,44.126160 109.592110,44.271339 108.301331,44.066017 
	C101.884056,43.045216 97.319756,44.894512 94.745560,51.391521 
	C92.492462,57.078148 86.988029,54.102501 82.482895,55.004448 
z"/>
<path fill="#AFC6D3" opacity="1.000000" stroke="none" 
	d="
M48.231659,49.978527 
	C48.722977,51.444031 48.772564,52.914165 48.747818,54.705265 
	C45.686825,54.981354 42.692287,54.777454 39.715153,54.924931 
	C33.639973,55.225872 27.771669,55.369102 23.752584,49.441921 
	C23.123613,48.514339 21.106562,48.527985 19.304394,47.711151 
	C18.580677,46.218037 18.283926,45.120186 17.987175,44.022331 
	C22.202728,43.478634 25.708530,44.422733 28.624424,47.908257 
	C29.699341,49.193165 32.026794,49.912502 33.830902,50.010929 
	C38.469597,50.264004 43.135124,50.025318 48.231659,49.978527 
z"/>
<path fill="#0C0C0C" opacity="1.000000" stroke="none" 
	d="
M246.104584,51.359032 
	C241.895782,52.705971 238.448563,51.701214 237.189316,47.965191 
	C236.520081,45.979717 237.369263,42.711983 238.742691,40.985184 
	C240.919647,38.248104 244.309723,38.382961 247.271790,40.307766 
	C251.356216,42.961906 250.974472,47.501995 246.104584,51.359032 
z"/>
<path fill="#A9C2D0" opacity="1.000000" stroke="none" 
	d="
M48.237503,58.001106 
	C48.209148,59.417435 47.741261,60.834751 46.706589,62.589756 
	C44.410782,62.954491 42.681759,62.981541 40.952740,63.008591 
	C36.715977,62.210968 33.899204,63.895233 31.496126,67.472282 
	C29.681770,70.173004 27.849871,73.632820 23.176521,72.573128 
	C22.863899,71.440071 22.867756,70.706650 22.871614,69.973236 
	C24.019873,69.057167 25.634596,68.378944 26.242239,67.187233 
	C30.903336,58.045841 38.973236,57.200218 48.237503,58.001106 
z"/>
<path fill="#FDCB62" opacity="1.000000" stroke="none" 
	d="
M40.668644,32.978668 
	C40.183434,32.325493 39.766914,31.604767 39.201836,31.030128 
	C35.604282,27.371719 35.207909,23.865334 38.411045,21.273165 
	C41.219696,19.000231 44.302780,19.073576 46.944168,21.596502 
	C49.932178,24.450510 49.316391,27.708805 44.769997,31.549484 
	C42.999180,32.230995 41.833912,32.604832 40.668644,32.978668 
z"/>
<path fill="#FDCA61" opacity="1.000000" stroke="none" 
	d="
M110.246780,83.058456 
	C112.467445,80.043678 115.238533,77.557205 118.955109,79.942276 
	C120.737991,81.086418 122.425919,83.845161 122.416779,85.864807 
	C122.409050,87.571381 120.218246,90.020103 118.413818,90.801613 
	C115.187660,92.198898 112.274727,90.810448 110.232239,86.991776 
	C110.063477,85.278320 110.155128,84.168388 110.246780,83.058456 
z"/>
<path fill="#FDCA61" opacity="1.000000" stroke="none" 
	d="
M112.486061,44.373638 
	C112.183220,42.968861 112.106979,41.795135 112.163010,40.324867 
	C116.506165,34.944729 121.973984,34.586563 123.657440,39.626068 
	C124.360130,41.729630 123.484528,45.695499 121.872765,46.956673 
	C118.608765,49.510689 114.949837,48.632454 112.486061,44.373638 
z"/>
<path fill="#FECA5F" opacity="1.000000" stroke="none" 
	d="
M100.232101,58.125954 
	C102.523315,55.487743 105.274345,52.907879 108.694191,55.330376 
	C110.463959,56.584026 111.851936,59.658550 111.760361,61.841091 
	C111.690598,63.503613 108.939285,66.439377 107.521774,66.357933 
	C104.935089,66.209305 102.452751,64.244606 99.527420,62.594208 
	C99.496002,60.809280 99.864052,59.467617 100.232101,58.125954 
z"/>
<path fill="#FDCA61" opacity="1.000000" stroke="none" 
	d="
M77.138283,29.740288 
	C72.114067,25.017899 71.868492,19.853340 76.914963,18.417002 
	C79.078056,17.801338 82.740288,18.739904 84.255829,20.350958 
	C87.221313,23.503321 85.480743,26.758287 81.764359,29.494698 
	C79.854500,29.788364 78.496391,29.764326 77.138283,29.740288 
z"/>
<path fill="#6290AA" opacity="1.000000" stroke="none" 
	d="
M79.479897,112.552139 
	C77.032806,113.616730 74.647598,114.173134 72.354126,114.987785 
	C65.143112,117.549171 58.460583,115.038277 51.316071,112.986832 
	C50.855122,111.599396 50.794582,110.219543 50.765579,108.426041 
	C60.175213,112.956955 69.580833,113.007309 79.363335,108.167374 
	C79.669746,109.496498 79.626747,110.829315 79.479897,112.552139 
z"/>
<path fill="#FDCA61" opacity="1.000000" stroke="none" 
	d="
M17.698477,43.832272 
	C18.283926,45.120186 18.580677,46.218037 18.925310,47.659592 
	C18.973192,48.003292 19.005718,48.006535 18.754879,48.017902 
	C18.257311,48.255157 18.010580,48.481045 17.763847,48.706932 
	C15.700306,51.442429 13.033030,53.270355 9.652633,51.842941 
	C8.111388,51.192135 6.559213,49.302006 6.086345,47.663868 
	C5.242209,44.739567 6.192811,42.082947 9.377053,40.750568 
	C12.960085,39.251331 15.443399,40.703609 17.698477,43.832272 
z"/>
<path fill="#FFCA5F" opacity="1.000000" stroke="none" 
	d="
M29.885544,89.938644 
	C27.514702,91.060493 25.081104,93.138344 22.793764,92.988197 
	C21.100159,92.877014 18.424198,89.936501 18.317987,88.130997 
	C18.196682,86.068855 19.962305,82.983994 21.797525,81.996117 
	C23.372440,81.148346 26.305077,82.363144 28.430134,83.195023 
	C29.461046,83.598602 30.017550,85.214050 30.896145,86.905312 
	C30.630823,88.332726 30.258183,89.135681 29.885544,89.938644 
z"/>
<path fill="#FECA5F" opacity="1.000000" stroke="none" 
	d="
M21.597355,23.943130 
	C21.197472,23.112635 21.122072,22.366962 21.127066,21.249496 
	C22.807583,19.270529 24.139957,16.986593 26.073315,16.221693 
	C28.688602,15.186998 32.292576,15.259898 33.170479,18.670187 
	C33.764107,20.976200 33.365433,24.727455 31.852556,26.049976 
	C30.351538,27.362133 26.877459,26.651882 24.314922,26.384912 
	C23.444820,26.294264 22.715494,24.852377 21.597355,23.943130 
z"/>
<path fill="#FECA5D" opacity="1.000000" stroke="none" 
	d="
M100.188553,27.389175 
	C100.993393,26.573748 101.680862,25.572178 102.624634,24.977060 
	C105.716805,23.027222 108.667725,23.397017 110.891792,26.320625 
	C112.963638,29.044144 112.693398,31.937691 110.206001,34.296185 
	C107.718513,36.654762 104.905502,36.706116 102.200630,34.559109 
	C101.324379,33.863586 100.652023,32.911194 99.497459,31.640518 
	C99.468536,29.932886 99.828545,28.661032 100.188553,27.389175 
z"/>
<path fill="#FECA5D" opacity="1.000000" stroke="none" 
	d="
M22.563324,69.834732 
	C22.867756,70.706650 22.863899,71.440071 22.774357,72.533447 
	C21.983202,73.522675 21.244175,74.118492 20.578070,74.786964 
	C17.675327,77.700012 14.080444,77.845238 11.481064,75.128304 
	C9.078527,72.617119 9.279823,68.676422 11.928958,66.360252 
	C14.721520,63.918674 18.432428,64.436111 20.910053,67.640137 
	C21.409479,68.285988 21.809294,69.008873 22.563324,69.834732 
z"/>
<path fill="#FDC95F" opacity="1.000000" stroke="none" 
	d="
M58.071007,28.688316 
	C57.157299,28.008654 56.213062,27.366022 55.335480,26.642538 
	C52.441147,24.256445 51.939091,19.839754 54.531181,17.514591 
	C57.188206,15.131180 60.247635,14.999472 63.022766,17.354527 
	C65.896011,19.792849 65.712601,23.679018 62.753231,26.446615 
	C62.039230,27.114349 61.150860,27.595625 59.827007,28.473478 
	C58.897896,28.752314 58.484451,28.720316 58.071007,28.688316 
z"/>
<path fill="#A6C0CF" opacity="1.000000" stroke="none" 
	d="
M99.786041,27.334515 
	C99.828545,28.661032 99.468536,29.932886 99.167053,31.546616 
	C96.383255,31.583342 94.555679,32.702045 93.665215,35.517822 
	C93.071342,37.395706 92.005081,39.124062 91.409515,41.001583 
	C90.205505,44.797226 88.028160,46.935631 83.368248,46.036404 
	C82.640358,45.211872 82.332367,44.436897 81.868767,43.380058 
	C86.168045,42.473057 88.188454,39.274513 89.131187,35.444794 
	C90.487549,29.934816 93.560387,26.983973 99.786041,27.334515 
z"/>
<path fill="#D0D9DB" opacity="1.000000" stroke="none" 
	d="
M100.031433,79.155701 
	C97.632500,82.110222 95.233566,85.064751 92.439072,87.608429 
	C92.058769,81.428558 92.074020,75.659538 92.089279,69.890511 
	C93.886726,71.825676 95.684166,73.760841 97.636688,76.139404 
	C98.538322,77.440437 99.284882,78.298065 100.031433,79.155701 
z"/>
<path fill="#D0D9DB" opacity="1.000000" stroke="none" 
	d="
M33.940231,85.711914 
	C31.314445,77.215469 32.002953,73.936028 37.609245,70.445068 
	C37.985893,76.687798 37.985893,82.515419 37.985893,88.343048 
	C37.397659,88.478088 36.809425,88.613129 36.221188,88.748177 
	C35.460869,87.736084 34.700550,86.723999 33.940231,85.711914 
z"/>
<path fill="#AEC5D2" opacity="1.000000" stroke="none" 
	d="
M99.745392,58.082268 
	C99.864052,59.467617 99.496002,60.809280 99.199600,62.501713 
	C96.335129,62.894539 93.399010,62.936596 89.588913,63.017864 
	C86.807205,62.993462 84.899475,62.929840 82.991737,62.866219 
	C82.642204,61.476772 82.292679,60.087330 81.987556,58.336044 
	C87.774200,57.995663 93.516434,58.017120 99.745392,58.082268 
z"/>
<path fill="#BAC6CB" opacity="1.000000" stroke="none" 
	d="
M33.644024,85.791550 
	C34.700550,86.723999 35.460869,87.736084 36.221188,88.748177 
	C36.809425,88.613129 37.397659,88.478088 37.985893,88.343048 
	C37.985893,82.515419 37.985893,76.687798 37.958855,70.383087 
	C38.414902,69.598625 38.897987,69.291252 39.671661,68.913910 
	C40.307178,74.225288 40.652103,79.606621 41.011238,85.444794 
	C41.002594,87.051651 40.979740,88.201668 40.914963,89.784500 
	C37.521797,90.143860 34.170559,90.070396 30.352430,89.967789 
	C30.258183,89.135681 30.630823,88.332726 31.074047,87.198860 
	C31.879026,86.535698 32.613422,86.203438 33.644024,85.791550 
z"/>
<path fill="#A6C0CF" opacity="1.000000" stroke="none" 
	d="
M100.318138,79.324005 
	C99.284882,78.298065 98.538322,77.440437 97.914200,76.337006 
	C101.342735,73.912392 103.363014,75.159744 105.158066,78.339874 
	C106.167549,80.128281 107.995750,81.454544 109.850945,83.023727 
	C110.155128,84.168388 110.063477,85.278320 110.068375,86.683517 
	C103.470306,88.962845 103.087463,82.886894 100.318138,79.324005 
z"/>
<path fill="#9CB9CA" opacity="1.000000" stroke="none" 
	d="
M40.753422,33.359520 
	C41.833912,32.604832 42.999180,32.230995 44.525986,31.780289 
	C47.535362,32.854916 50.306938,33.793228 52.787437,35.233017 
	C54.434982,36.189320 55.666328,37.862656 57.107582,39.591743 
	C55.729229,40.030521 54.327263,40.092583 52.508209,40.121399 
	C49.616947,38.994068 47.074047,38.028622 44.694477,36.757439 
	C43.276470,35.999931 42.114998,34.762211 40.753422,33.359520 
z"/>
<path fill="#A4BFCE" opacity="1.000000" stroke="none" 
	d="
M57.784004,28.956470 
	C58.484451,28.720316 58.897896,28.752314 59.619976,28.737164 
	C60.746910,29.437067 61.471024,30.668312 62.399498,30.848913 
	C66.860802,31.716705 67.499519,34.709461 67.013023,38.913563 
	C65.951637,39.308525 64.937614,39.250259 63.545189,39.225410 
	C62.135288,37.674728 61.452065,35.495190 59.993149,34.641891 
	C57.626331,33.257572 56.246525,32.013504 57.784004,28.956470 
z"/>
<path fill="#A9C2D0" opacity="1.000000" stroke="none" 
	d="
M77.088867,30.142012 
	C78.496391,29.764326 79.854500,29.788364 81.534340,29.735928 
	C83.746147,34.156822 78.585915,35.792412 77.925354,39.651901 
	C76.462311,39.990364 75.030190,39.943932 73.272583,39.934708 
	C74.311218,36.829189 75.675339,33.686462 77.088867,30.142012 
z"/>
<path fill="#BBC3C5" opacity="1.000000" stroke="none" 
	d="
M91.898148,69.656326 
	C92.074020,75.659538 92.058769,81.428558 92.096756,87.679718 
	C91.379601,88.511131 90.609184,88.860420 89.522888,89.291435 
	C89.140732,88.513626 89.074463,87.654076 89.003723,86.365929 
	C89.316444,80.570679 89.633644,75.204033 89.969734,69.359138 
	C90.561424,69.061310 91.134216,69.241730 91.898148,69.656326 
z"/>
<path fill="#949A9C" opacity="1.000000" stroke="none" 
	d="
M40.892788,63.407715 
	C42.681759,62.981541 44.410782,62.954491 46.567963,62.892086 
	C47.346996,64.004341 47.697865,65.151955 48.024620,66.962646 
	C47.940807,67.816345 47.881115,68.006950 47.821423,68.197548 
	C45.656349,67.847015 43.491280,67.496475 40.952477,67.085701 
	C40.663441,65.952583 40.748138,64.879715 40.892788,63.407715 
z"/>
<path fill="#949A9C" opacity="1.000000" stroke="none" 
	d="
M82.968704,63.288330 
	C84.899475,62.929840 86.807205,62.993462 89.100586,63.036476 
	C89.606148,64.017014 89.726074,65.018150 89.850166,66.395691 
	C87.802948,67.455086 85.751556,68.138077 83.329712,68.527420 
	C82.875954,67.839653 82.792648,67.445549 82.709343,67.051437 
	C82.788124,65.937775 82.866905,64.824104 82.968704,63.288330 
z"/>
<path fill="#A6C0CF" opacity="1.000000" stroke="none" 
	d="
M82.265213,46.713161 
	C82.081482,46.432491 82.248177,46.185703 82.777603,45.992374 
	C82.950851,46.278469 82.775955,46.512211 82.265213,46.713161 
z"/>
<path fill="#AFC6D3" opacity="1.000000" stroke="none" 
	d="
M18.029499,48.701241 
	C18.010580,48.481045 18.257311,48.255157 18.757713,48.001785 
	C18.772638,48.214714 18.533895,48.455128 18.029499,48.701241 
z"/>
<path fill="#FBFBFB" opacity="1.000000" stroke="none" 
	d="
M157.881104,83.067291 
	C157.881104,80.937698 157.881104,79.294579 157.881104,77.248573 
	C162.463303,77.248573 166.907486,76.867233 171.255661,77.350143 
	C176.118973,77.890282 179.306198,81.952118 178.808563,86.260468 
	C178.253220,91.068413 175.017532,93.005882 170.553101,93.156982 
	C166.584137,93.291321 162.607040,93.185181 157.881088,93.185181 
	C157.881088,90.002663 157.881088,86.778221 157.881104,83.067291 
z"/>
<path fill="#FAFAFA" opacity="1.000000" stroke="none" 
	d="
M176.438278,62.372532 
	C173.786987,64.534019 171.479797,67.124886 168.664764,67.921844 
	C165.463959,68.828018 161.809341,68.131241 158.119507,68.131241 
	C158.119507,63.113102 158.119507,58.358505 158.121735,53.602604 
	C170.839279,51.707867 177.526596,53.778057 176.438278,62.372532 
z"/>
<path fill="#F4F4F4" opacity="1.000000" stroke="none" 
	d="
M371.464996,61.582367 
	C373.482452,67.746132 375.335602,73.552567 377.297760,79.700668 
	C371.971527,79.700668 367.111145,79.700668 361.815552,79.700668 
	C364.340240,71.966545 366.771790,64.517815 369.507690,56.136829 
	C370.329468,58.468945 370.815063,59.846992 371.464996,61.582367 
z"/>
<path fill="#F8F8F8" opacity="1.000000" stroke="none" 
	d="
M287.386230,76.242294 
	C281.644653,76.245865 276.339325,76.245865 271.026978,76.245865 
	C271.251617,70.776642 274.132202,67.522827 278.938904,66.987068 
	C284.002075,66.422722 288.277252,69.066162 289.168549,73.571510 
	C289.320892,74.341675 288.300873,75.343781 287.386230,76.242294 
z"/>
<path fill="#FEBA32" opacity="1.000000" stroke="none" 
	d="
M82.325562,67.058762 
	C82.792648,67.445549 82.875954,67.839653 82.967087,68.535645 
	C71.321716,72.969933 59.656681,73.235626 47.899570,68.571022 
	C47.881115,68.006950 47.940807,67.816345 48.082932,67.337891 
	C59.422787,69.946609 70.681648,69.832520 82.325562,67.058762 
z"/>
<path fill="#8CAFC1" opacity="1.000000" stroke="none" 
	d="
M60.050240,93.775459 
	C63.030224,93.416527 65.693413,93.080048 68.308617,93.303970 
	C69.261475,93.385551 70.100090,94.801384 70.990814,95.608490 
	C70.209198,96.335281 69.487167,97.592674 68.634674,97.688423 
	C66.171997,97.964989 63.605904,98.045700 61.194256,97.594635 
	C60.502312,97.465225 60.197025,95.268532 60.050240,93.775459 
z"/>
<path fill="#80A6BB" opacity="1.000000" stroke="none" 
	d="
M74.382568,78.516502 
	C75.199722,78.595863 75.685089,78.502144 76.172722,78.488342 
	C77.896141,78.439537 79.620323,78.418076 81.344223,78.386246 
	C79.872314,79.860786 78.621658,81.788338 76.851761,82.652748 
	C75.644646,83.242302 73.493103,82.738235 72.168564,81.998474 
	C70.970718,81.329460 70.321777,79.677635 69.430794,78.459183 
	C70.971138,78.432816 72.511475,78.406441 74.382568,78.516502 
z"/>
<path fill="#80A6BB" opacity="1.000000" stroke="none" 
	d="
M51.529640,77.354187 
	C53.707199,77.591644 55.540432,77.676750 57.371738,77.792419 
	C58.394279,77.857002 59.413609,77.972343 60.434387,78.064819 
	C60.033829,79.160172 59.751392,81.132050 59.213001,81.204597 
	C56.330811,81.593002 53.142155,82.235329 50.534237,81.365799 
	C48.270947,80.611191 47.707516,78.136070 51.529640,77.354187 
z"/>
<path fill="#A6BEC8" opacity="1.000000" stroke="none" 
	d="
M58.805084,48.897293 
	C64.857430,48.353111 66.803001,50.002724 67.076683,55.500481 
	C67.420799,62.413124 67.393768,62.519730 64.759933,64.636551 
	C60.947052,59.986099 60.947052,59.986099 57.279831,64.592560 
	C53.291470,61.594078 53.955067,52.683102 58.805084,48.897293 
z"/>
<path fill="#AABEC3" opacity="1.000000" stroke="none" 
	d="
M71.074905,53.232464 
	C71.756065,51.502773 72.436668,50.231262 73.117279,48.959751 
	C73.779274,50.224735 74.886009,51.446873 75.012848,52.763412 
	C75.297386,55.716961 75.260742,58.732044 74.999611,61.690720 
	C74.910072,62.705265 73.762642,63.626442 73.098518,64.590271 
	C72.428360,63.607151 71.291939,62.674191 71.179726,61.631054 
	C70.897865,59.010792 71.078926,56.340733 71.074905,53.232464 
z"/>
</svg>